<svg xmlns="http://www.w3.org/2000/svg" width="345" height="128" viewBox="0 0 345 128" fill="none">
<path d="M59.4375 86.4062C58.8438 87.4688 58.5469 90.0156 58.5469 94.0469V108.578C58.5469 112.984 56.2656 116.812 51.7031 120.062C46.9844 123.469 41.2031 125.172 34.3594 125.172C24.8594 125.172 17.2812 122.188 11.625 116.219C6.15625 110.531 3.42188 103.281 3.42188 94.4688C3.42188 85.0938 6.20312 77.2812 11.7656 71.0312C17.9844 64 26.5469 60.4844 37.4531 60.4844C44.7344 60.4844 50.5 61.8906 54.75 64.7031L54 78.5312L53.625 78.625C52.5312 76.7188 50.375 75.1562 47.1562 73.9375C44.0938 72.7812 40.875 72.2031 37.5 72.2031C34.1562 72.2031 31.2188 72.7344 28.6875 73.7969C26.1875 74.8594 24.0625 76.375 22.3125 78.3438C18.625 82.375 16.7812 87.7031 16.7812 94.3281C16.7812 100.109 18.4062 104.75 21.6562 108.25C24.9062 111.719 29.0938 113.453 34.2188 113.453C39.875 113.453 43.6875 111.984 45.6562 109.047C46.2812 108.109 46.5938 107.047 46.5938 105.859V98.0781H40.5469C37.2969 98.0781 35.5312 98.3594 35.25 98.9219L35.1094 98.875L34.6875 86.6406C35.5625 86.8906 39.1094 87.0156 45.3281 87.0156H50.8594C54.2969 87.0156 57.1094 86.7812 59.2969 86.3125L59.4375 86.4062ZM92.1562 99.7656C91.2188 99.8281 90.2188 99.8594 89.1562 99.8594C88.0938 99.8594 86.5156 99.7812 84.4219 99.625V124H72V61.3281C76.375 60.7656 81.75 60.4844 88.125 60.4844C96.8125 60.4844 103.281 62.0938 107.531 65.3125C111.812 68.5 113.953 73.4375 113.953 80.125C113.953 85.3125 112 89.75 108.094 93.4375C106.812 94.625 105.344 95.6562 103.688 96.5312L113.25 116.688C115.125 120.844 116.562 123.312 117.562 124.094L117.328 124.328C114.297 123.828 109.531 123.844 103.031 124.375L92.1562 99.7656ZM89.0156 71.5469C87.4219 71.5469 85.8906 71.625 84.4219 71.7812V89.6875C85.9531 89.9062 87.75 90.0156 89.8125 90.0156C91.875 90.0156 93.6094 89.8438 95.0156 89.5C96.4219 89.125 97.6406 88.5625 98.6719 87.8125C100.891 86.1562 102 83.6719 102 80.3594C102 77.0469 100.844 74.7188 98.5312 73.375C96.375 72.1562 93.2031 71.5469 89.0156 71.5469ZM133.078 116.594C130.234 113.875 127.984 110.609 126.328 106.797C124.703 102.984 123.891 98.8125 123.891 94.2812C123.891 89.7188 124.656 85.4062 126.188 81.3438C127.719 77.2812 129.906 73.7031 132.75 70.6094C135.594 67.5156 139.031 65.0625 143.062 63.25C147.094 61.4062 151.609 60.4844 156.609 60.4844C165.234 60.4844 172.5 63.2031 178.406 68.6406C184.719 74.4531 187.875 82.2969 187.875 92.1719C187.875 101.734 184.625 109.688 178.125 116.031C174.125 119.938 169.359 122.625 163.828 124.094C161.109 124.812 157.922 125.172 154.266 125.172C150.641 125.172 146.906 124.422 143.062 122.922C139.25 121.422 135.922 119.312 133.078 116.594ZM136.922 93.625C136.922 96.5312 137.406 99.2031 138.375 101.641C139.344 104.078 140.688 106.172 142.406 107.922C146.062 111.609 150.766 113.453 156.516 113.453C161.984 113.453 166.375 111.688 169.688 108.156C173.062 104.5 174.75 99.5156 174.75 93.2031C174.75 87.2656 173.141 82.3125 169.922 78.3438C166.453 74.0938 161.703 71.9688 155.672 71.9688C149.828 71.9688 145.188 74.125 141.75 78.4375C138.531 82.4688 136.922 87.5312 136.922 93.625ZM199.078 61.3281C203.422 60.7656 207.875 60.4844 212.438 60.4844C220.938 60.4844 227.391 62.4844 231.797 66.4844C236.234 70.4531 238.453 76.4062 238.453 84.3438C238.453 91.4375 236.031 97.0469 231.188 101.172C226.656 105.047 220.828 106.984 213.703 106.984C212.891 106.984 212 106.938 211.031 106.844V124H199.078V61.3281ZM213.844 71.7812C212.906 71.7812 211.969 71.8125 211.031 71.875V96.5312C212.031 96.6562 213.25 96.7188 214.688 96.7188C216.125 96.7188 217.625 96.4219 219.188 95.8281C220.75 95.2031 222.062 94.3438 223.125 93.25C225.344 90.9688 226.453 87.9688 226.453 84.25C226.453 75.9375 222.25 71.7812 213.844 71.7812ZM252.609 124.375C249.922 124.125 246.781 124 243.188 124H239.484L259.875 66.8594C260.781 64.2969 261.234 62.8125 261.234 62.4062C261.234 61.9688 261.219 61.7031 261.188 61.6094L261.234 61.5156C263.266 61.6094 265.422 61.6562 267.703 61.6562C269.578 61.6562 271.828 61.625 274.453 61.5625L274.5 61.6562C274.438 61.7812 274.406 61.9531 274.406 62.1719C274.406 62.7656 274.875 64.3438 275.812 66.9062L296.625 124.141C296 124.109 295.266 124.094 294.422 124.094C294.422 124.094 293.609 124.062 291.984 124C291.203 124 290.5 124 289.875 124H282.609L278.203 110.5H257.016L252.609 124.375ZM274.547 99.25L267.469 77.4531L260.578 99.25H274.547ZM326.719 124.281C325.219 124.094 321.359 124 315.141 124H313.641V72.1562H304.359C301.609 72.1562 299.984 72.2969 299.484 72.5781C298.984 72.8594 298.594 73.1094 298.312 73.3281L298.172 73.2812V61.2812L298.312 61.1406C299.344 61.4844 302.125 61.6562 306.656 61.6562H336.047C338.797 61.6562 340.422 61.5156 340.922 61.2344C341.422 60.9531 341.812 60.7031 342.094 60.4844L342.234 60.5312V72.5312L342.094 72.6719C341.062 72.3281 338.281 72.1562 333.75 72.1562H326.719V124.281Z" fill="#0080C8"/>
<path d="M193.893 19.7078C193.893 24.3155 190.147 28.0616 185.539 28.0616C180.931 28.0616 177.185 24.3155 177.185 19.7078C177.185 15.1001 180.931 11.3539 185.539 11.3539C190.147 11.3539 193.893 15.1001 193.893 19.7078Z" fill="#0080C8" fill-opacity="0.63"/>
<path d="M181.362 32.2386H189.716C194.324 32.2386 198.07 35.9848 198.07 40.5925V44.7694C198.07 47.0798 196.203 48.9463 193.893 48.9463H185.278C184.469 42.7593 180.735 37.5511 175.475 34.6664C176.989 33.1653 179.065 32.2386 181.362 32.2386Z" fill="#0080C8" fill-opacity="0.63"/>
<path d="M135.415 19.7078C135.415 24.3155 131.669 28.0616 127.062 28.0616C122.454 28.0616 118.708 24.3155 118.708 19.7078C118.708 15.1001 122.454 11.3539 127.062 11.3539C131.669 11.3539 135.415 15.1001 135.415 19.7078Z" fill="#0080C8" fill-opacity="0.63"/>
<path d="M131.239 32.2386C133.536 32.2386 135.611 33.1653 137.125 34.6664C131.865 37.5511 128.132 42.7593 127.31 48.9463H118.708C116.397 48.9463 114.531 47.0798 114.531 44.7694V40.5925C114.531 35.9848 118.277 32.2386 122.885 32.2386H131.239Z" fill="#0080C8" fill-opacity="0.63"/>
<path d="M207.215 20.0558C207.215 23.1276 204.718 25.6251 201.646 25.6251C198.574 25.6251 196.077 23.1276 196.077 20.0558C196.077 16.984 198.574 14.4866 201.646 14.4866C204.718 14.4866 207.215 16.984 207.215 20.0558Z" fill="#0080C8" fill-opacity="0.45"/>
<path d="M198.862 28.4097H204.431C207.503 28.4097 210 30.9072 210 33.979V36.7636C210 38.3038 208.756 39.5482 207.215 39.5482H201.472C200.933 35.4235 198.444 31.9514 194.937 30.0283C195.946 29.0275 197.33 28.4097 198.862 28.4097Z" fill="#0080C8" fill-opacity="0.45"/>
<path d="M115.923 20.0558C115.923 23.1276 113.426 25.6251 110.354 25.6251C107.282 25.6251 104.785 23.1276 104.785 20.0558C104.785 16.984 107.282 14.4866 110.354 14.4866C113.426 14.4866 115.923 16.984 115.923 20.0558Z" fill="#0080C8" fill-opacity="0.45"/>
<path d="M113.139 28.4097C114.67 28.4097 116.054 29.0275 117.063 30.0283C113.556 31.9514 111.067 35.4235 110.519 39.5482H104.785C103.244 39.5482 102 38.3038 102 36.7636V33.979C102 30.9072 104.497 28.4097 107.569 28.4097H113.139Z" fill="#0080C8" fill-opacity="0.45"/>
<path fill-rule="evenodd" clip-rule="evenodd" d="M170.92 17.6193C170.92 25.6991 164.38 32.2386 156.3 32.2386C148.221 32.2386 141.681 25.6991 141.681 17.6193C141.681 9.53952 148.221 3 156.3 3C164.38 3 170.92 9.53952 170.92 17.6193ZM165.242 36.4155H166.325C174.627 36.4155 181.362 43.1508 181.362 51.4525V55.2118C181.362 56.5472 180.944 57.7853 180.231 58.8023C173.769 53.861 166.072 51.3903 157.14 51.3903C151.239 51.3903 145.909 52.4783 141.151 54.6544C138.162 55.9982 135.45 57.6404 133.014 59.5809C131.916 58.452 131.239 56.9106 131.239 55.2118V51.4525C131.239 43.1508 137.974 36.4155 146.276 36.4155H147.359C150.087 37.7208 153.089 38.504 156.3 38.504C159.511 38.504 162.527 37.7208 165.242 36.4155Z" fill="#0080C8"/>
</svg>